<svg width="40" height="44" viewBox="0 0 40 44" fill="none" xmlns="http://www.w3.org/2000/svg">
<path fill-rule="evenodd" clip-rule="evenodd" d="M20.25 0C20.9404 0 21.5 0.559644 21.5 1.25V5C21.5 5.69036 20.9404 6.25 20.25 6.25C19.5596 6.25 19 5.69036 19 5V1.25C19 0.559644 19.5596 0 20.25 0Z" fill="#021CA8"/>
<path fill-rule="evenodd" clip-rule="evenodd" d="M20.25 28.75C20.9404 28.75 21.5 29.3096 21.5 30V33.75C21.5 34.4404 20.9404 35 20.25 35C19.5596 35 19 34.4404 19 33.75V30C19 29.3096 19.5596 28.75 20.25 28.75Z" fill="#021CA8"/>
<path fill-rule="evenodd" clip-rule="evenodd" d="M11.8217 5.9467C13.2282 4.54018 15.1359 3.75 17.125 3.75H22.75C23.7349 3.75 24.7102 3.94399 25.6201 4.3209C26.5301 4.69781 27.3569 5.25026 28.0533 5.9467C28.7497 6.64314 29.3022 7.46993 29.6791 8.37987C30.056 9.28982 30.25 10.2651 30.25 11.25C30.25 11.9404 29.6904 12.5 29 12.5C28.3096 12.5 27.75 11.9404 27.75 11.25C27.75 10.5934 27.6207 9.94321 27.3694 9.33658C27.1181 8.72996 26.7498 8.17876 26.2855 7.71447C25.8212 7.25017 25.27 6.88188 24.6634 6.6306C24.0568 6.37933 23.4066 6.25 22.75 6.25H17.125C15.7989 6.25 14.5271 6.77678 13.5895 7.71447C12.6518 8.65215 12.125 9.92392 12.125 11.25C12.125 12.5761 12.6518 13.8479 13.5895 14.7855C14.5271 15.7232 15.7989 16.25 17.125 16.25H24C25.9891 16.25 27.8968 17.0402 29.3033 18.4467C30.7098 19.8532 31.5 21.7609 31.5 23.75C31.5 25.7391 30.7098 27.6468 29.3033 29.0533C27.8968 30.4598 25.9891 31.25 24 31.25H16.5C14.5109 31.25 12.6032 30.4598 11.1967 29.0533C9.79018 27.6468 9 25.7391 9 23.75C9 23.0596 9.55964 22.5 10.25 22.5C10.9404 22.5 11.5 23.0596 11.5 23.75C11.5 25.0761 12.0268 26.3479 12.9645 27.2855C13.9021 28.2232 15.1739 28.75 16.5 28.75H24C25.3261 28.75 26.5979 28.2232 27.5355 27.2855C28.4732 26.3479 29 25.0761 29 23.75C29 22.4239 28.4732 21.1521 27.5355 20.2145C26.5979 19.2768 25.3261 18.75 24 18.75H17.125C15.1359 18.75 13.2282 17.9598 11.8217 16.5533C10.4152 15.1468 9.625 13.2391 9.625 11.25C9.625 9.26088 10.4152 7.35322 11.8217 5.9467Z" fill="#021CA8"/>
</svg>
