<svg width="850" height="521" viewBox="0 0 850 521" fill="none" xmlns="http://www.w3.org/2000/svg">
<g clip-path="url(#clip0_13_25)">
<path opacity="0.8" d="M826.483 0.722035C824.783 -0.288774 821.808 -0.288774 820.108 0.722035C818.833 1.44404 818.408 2.59925 819.117 3.61006L720.658 61.515V134.726L696.717 148.878V228.443L614.55 276.817L601.8 269.309L665.125 232.053V188.444L664.842 188.299L592.733 145.845V130.972L633.533 107.001C635.233 107.723 637.783 107.723 639.342 106.713C641.042 105.702 641.042 103.969 639.342 102.958C637.642 101.947 634.667 101.947 632.967 102.958C631.408 103.825 631.267 105.269 632.542 106.424L591.742 130.394V146.423L592.025 146.567L664.133 189.021V231.475L616.25 259.634V241.439L638.208 228.587C639.908 229.309 642.458 229.309 644.017 228.299C645.717 227.288 645.717 225.555 644.017 224.544C642.317 223.533 639.342 223.533 637.642 224.544C636.083 225.41 635.942 226.854 637.217 228.01L615.258 240.861V260.211L600.808 268.731L583.667 258.623V226.999L615.967 207.938V185.989L615.683 185.845L547.683 145.845C548.958 144.835 548.817 143.391 547.258 142.38C545.558 141.369 542.583 141.369 540.883 142.38C539.183 143.391 539.183 145.123 540.883 146.134C542.442 147.001 544.992 147.145 546.692 146.423L614.975 186.567V207.216L583.667 225.699V203.895L583.383 203.75L541.733 179.202C543.008 178.191 542.867 176.747 541.308 175.736C539.608 174.726 536.633 174.726 534.933 175.736C533.233 176.747 533.233 178.48 534.933 179.491C536.492 180.357 539.042 180.502 540.742 179.78L582.533 204.472V257.901L570.492 250.825L550.658 262.522L532.667 251.98V226.277L532.383 226.133L484.925 198.263V174.004C485.917 174.004 486.908 173.715 487.617 173.282C489.317 172.271 489.317 170.538 487.617 169.527C485.917 168.516 482.942 168.516 481.242 169.527C479.542 170.538 479.542 172.271 481.242 173.282C481.95 173.715 482.942 174.004 483.933 174.004V198.841L484.217 198.985L531.675 226.855V251.403L454.467 205.916V157.686L496.4 132.994H534.792H534.933L600.95 94.1497C602.65 94.8717 605.2 94.8717 606.758 93.8609C608.458 92.8501 608.458 91.1173 606.758 90.1065C605.058 89.0956 602.083 89.0956 600.383 90.1065C598.825 90.9729 598.683 92.5613 599.958 93.5721L534.65 131.983H498.242L619.367 60.6486C621.067 61.3706 623.617 61.3706 625.175 60.3598C626.875 59.349 626.875 57.6162 625.175 56.6054C623.475 55.5945 620.5 55.5945 618.8 56.6054C617.242 57.4718 617.1 59.0602 618.375 60.071L453.333 157.253V206.638L453.617 206.783L549.525 263.244L530.258 274.651L366.492 178.191V120.72L366.208 120.575L310.533 87.796C311.808 86.7852 311.667 85.3412 310.108 84.3304C308.408 83.3196 305.433 83.3196 303.733 84.3304C302.033 85.3412 302.033 87.074 303.733 88.0848C305.292 88.9512 307.842 89.0956 309.542 88.3736L365.5 121.297V178.769L365.783 178.913L529.408 275.229L510.992 286.059L348.925 190.754H252.308L191.958 155.231V100.648C192.525 100.503 193.233 100.359 193.658 100.07C195.358 99.0593 195.358 97.3265 193.658 96.3157C191.958 95.3049 188.983 95.3049 187.283 96.3157C185.583 97.3265 185.583 99.0593 187.283 100.07C188.275 100.648 189.55 100.937 190.825 100.792V155.809L191.108 155.953L252.025 191.765H348.642L485.35 272.197H457.867L411.258 244.76H375.275H375.133L325.267 274.074C323.567 273.352 321.017 273.352 319.458 274.363C317.758 275.373 317.758 277.106 319.458 278.117C321.158 279.128 324.133 279.128 325.833 278.117C327.392 277.251 327.533 275.662 326.258 274.651L375.558 245.627H410.975L457.583 273.063H487.05L509.858 286.492L460.842 315.372L446.817 307.142V285.626L411.4 264.832C412.675 263.821 412.533 262.377 410.975 261.366C409.275 260.356 406.3 260.356 404.6 261.366C402.9 262.377 402.9 264.11 404.6 265.121C406.158 265.987 408.708 266.132 410.408 265.41L445.825 286.203V306.564L408 284.471H390.15H390.008L368.617 297.034C366.917 296.312 364.367 296.312 362.808 297.322C361.108 298.333 361.108 300.066 362.808 301.077C364.508 302.088 367.483 302.088 369.183 301.077C370.742 300.21 370.883 298.622 369.608 297.611L390.292 285.481H407.717L459.708 316.095L450.217 321.726L480.392 339.488L466.225 347.863H444.833L429.533 338.91C430.808 337.899 430.525 336.455 428.967 335.589C427.267 334.578 424.292 334.578 422.592 335.589C420.892 336.599 420.892 338.332 422.592 339.343C424.15 340.354 426.7 340.354 428.4 339.632L444.408 349.018H464.242L428.258 370.245L343.542 320.427H282.625H282.483L248.2 340.643C246.5 339.921 243.95 339.921 242.392 340.932C240.692 341.942 240.692 343.675 242.392 344.686C244.092 345.697 247.067 345.697 248.767 344.686C250.325 343.82 250.467 342.231 249.192 341.22L282.908 321.437H343.4L408.708 359.848H380.8L353.458 343.82C354.733 342.809 354.592 341.365 353.033 340.354C351.333 339.343 348.358 339.343 346.658 340.354C344.958 341.365 344.958 343.098 346.658 344.108C348.217 344.975 350.767 345.119 352.467 344.397L380.517 360.859H410.55L427.408 370.823L384.342 396.093H246.783L140.25 332.989C141.525 331.979 141.383 330.535 139.825 329.524C138.125 328.513 135.15 328.513 133.45 329.524C131.75 330.535 131.75 332.267 133.45 333.278C135.008 334.145 137.558 334.289 139.258 333.567L246.783 396.815H382.783L365.783 406.923H263.925H263.783L213.633 436.525C211.933 435.803 209.383 435.803 207.825 436.814C206.125 437.825 206.125 439.558 207.825 440.568C209.525 441.579 212.5 441.579 214.2 440.568C215.758 439.702 215.9 438.114 214.625 437.103L264.208 407.934H366.067H366.208L481.525 340.065L494.275 347.574L373.008 418.908H284.325H284.183L177.083 482.012H28.6167L0 465.117V466.272L28.475 483.022H177.367H177.508L244.8 443.456V466.849L200.458 492.986C198.758 492.264 196.208 492.264 194.65 493.275C192.95 494.286 192.95 496.019 194.65 497.029C196.35 498.04 199.325 498.04 201.025 497.029C202.583 496.163 202.725 494.575 201.45 493.564L245.792 467.427V443.023H245.508L284.608 420.063H373.292H373.433L495.267 348.296L509.858 356.816L273.275 496.019V521.144H274.267V496.596L510.85 357.393L528.842 367.935L406.867 439.702V452.554L385.192 465.261V494.719L343.258 519.412C341.558 518.69 339.008 518.69 337.45 519.7C336.742 520.134 336.458 520.567 336.175 521H344.958C344.817 520.711 344.533 520.278 344.25 519.989L386.183 495.297V465.839L406.867 453.709V500.928L419.05 508.148L397.092 521H399.075L420.042 508.726L441.008 521H442.992L407.858 500.351V440.28L529.833 368.512L546.267 378.187L459.85 428.872C458.15 428.15 455.6 428.15 454.042 429.161C452.342 430.172 452.342 431.904 454.042 432.915C455.742 433.926 458.717 433.926 460.417 432.915C461.975 432.049 462.117 430.605 460.842 429.45L547.117 378.62L562.983 387.862L459.708 448.655H431.658C431.517 448.222 431.092 447.644 430.383 447.355C428.683 446.344 425.708 446.344 424.008 447.355C422.308 448.366 422.308 450.099 424.008 451.11C425.708 452.121 428.683 452.121 430.383 451.11C431.092 450.677 431.517 450.243 431.658 449.81H459.992H460.133L563.975 388.728L570.35 392.483L575.308 389.595L600.1 404.179V424.396L579.7 436.381H547.683H547.542L512.408 457.03C510.708 456.308 508.158 456.308 506.6 457.319C504.9 458.33 504.9 460.063 506.6 461.073C508.3 462.084 511.275 462.084 512.975 461.073C514.533 460.207 514.675 458.619 513.4 457.608L547.967 437.247H578L517.933 472.626C516.233 471.759 513.683 471.904 511.983 472.77C510.283 473.781 510.283 475.514 511.983 476.524C513.683 477.535 516.658 477.535 518.358 476.524C519.917 475.658 520.058 474.214 518.925 473.203L593.867 429.016V438.836L549.242 465.117V483.6L512.975 504.971C511.275 504.249 508.725 504.249 507.167 505.26C505.467 506.271 505.467 508.004 507.167 509.015C508.867 510.025 511.842 510.025 513.542 509.015C515.1 508.148 515.242 506.56 513.967 505.549L550.233 484.178V465.694L594.858 439.413V428.439L601.092 424.829V403.313L576.3 388.728L592.592 379.198L643.45 409.233V443.312L608.883 463.673C607.183 462.806 604.633 462.951 602.933 463.817C601.233 464.828 601.233 466.561 602.933 467.572C604.633 468.582 607.608 468.582 609.308 467.572C610.867 466.705 611.008 465.261 609.875 464.25L643.45 444.467V472.048L616.958 487.643V521H617.95V488.221L643.45 473.203V521H644.442V408.656L593.583 378.62L611.858 367.935L678.442 407.067V500.351L710.458 519.123V521H711.45V518.545L679.433 499.773V406.49L612.85 367.357L626.45 359.415L716.267 412.266V491.831L765.992 521H767.975L717.258 491.253V411.688L627.442 358.837L649.4 345.986L798.858 433.926V473.492L850.142 503.672V502.517L799.992 472.914V433.348L715.983 383.819H782.425L850.142 423.673V422.518L782.425 382.664H714L650.392 345.264L675.892 330.246L730.575 362.447H818.408L850 381.075V379.92L843.058 375.877H850V374.866H841.358L818.692 361.581H730.858L715.558 352.628H752.958H753.1L771.8 341.654H849.858L850.142 341.798V340.643H773.642L794.75 328.224C796.45 328.946 799 328.946 800.558 327.935C802.258 326.925 802.258 325.192 800.558 324.181C798.858 323.17 795.883 323.17 794.183 324.181C792.625 325.047 792.483 326.636 793.758 327.647L752.817 351.762H714L677.025 330.101L690.625 322.015L681.842 316.817H707.342L740.633 336.455C739.358 337.466 739.5 338.91 741.058 339.921C742.758 340.932 745.733 340.932 747.433 339.921C749.133 338.91 749.133 337.177 747.433 336.166C745.875 335.3 743.325 335.155 741.625 335.878L707.483 315.806H680L661.3 304.831L672.775 298.044H693.175L711.025 287.503H724.342L754.517 305.264C753.1 306.275 753.242 307.719 754.942 308.73C756.642 309.741 759.617 309.741 761.317 308.73C763.017 307.719 763.017 305.986 761.317 304.976C759.758 304.109 757.35 303.965 755.65 304.687L724.767 286.492H710.883L693.033 297.034H674.617L711.308 275.373H731.142L772.508 299.633H850.142V298.622H772.792L731.425 274.363H711.025H710.883L660.308 304.109L646.992 296.312L704.083 262.666H744.317L777.608 282.16H850V281.149H777.892L746.442 262.666H850V261.366H703.942H703.8L646 295.445L630.983 286.637L710.6 239.706H850V238.695H748.425L850 178.913V177.758L746.442 238.695H711.308L786.817 194.22V184.401L822.942 163.174C824.642 163.896 827.192 163.896 828.75 162.885C830.45 161.874 830.45 160.141 828.75 159.13C827.05 158.119 824.075 158.119 822.375 159.13C820.817 159.997 820.675 161.441 821.95 162.596L802.258 174.148V147.289L850 119.276V118.12L801.267 146.712V174.726L785.825 183.823V193.642L709.75 238.407L710.033 238.84L629.992 285.915L615.4 277.395L697.567 229.021V149.455L850 59.7822V58.627L721.65 134.149V62.237L819.967 4.47647L820.108 4.62087C821.808 5.63168 824.783 5.63168 826.483 4.62087C828.183 3.46566 828.183 1.87725 826.483 0.722035ZM688.5 321.582L570.492 391.039L452.483 321.582L570.492 252.125L688.5 321.582Z" fill="url(#paint0_radial_13_25)"/>
<path d="M604.492 429.016C602.933 429.016 601.375 428.583 600.242 427.861L410.55 316.239C409.275 315.517 408.425 314.362 408.425 313.351C408.425 312.34 408.992 311.618 409.983 310.896L523.175 244.327C525.158 243.172 528.558 243.316 530.825 244.616L720.517 356.238C721.792 356.96 722.642 358.115 722.642 359.126C722.642 360.137 722.075 360.859 721.083 361.581L607.892 428.15C607.042 428.872 605.767 429.016 604.492 429.016ZM411.117 315.084L600.808 426.706C602.65 427.861 605.625 427.861 607.183 426.995L720.375 360.426C720.8 360.137 721.225 359.848 721.225 359.271C721.225 358.693 720.658 357.971 719.808 357.538L530.117 245.915C528.275 244.76 525.3 244.76 523.742 245.627L410.55 312.196C410.125 312.484 409.7 312.773 409.7 313.351C409.842 313.929 410.267 314.651 411.117 315.084Z" fill="#42E8E0"/>
<path d="M530.825 210.393L554.767 65.2694L552.783 64.403L555.617 62.6702C556.183 62.237 557.033 62.3814 557.883 62.8146L749.558 175.592C751.117 176.458 752.392 178.913 752.108 180.502L727.883 326.78C727.742 327.502 727.317 328.08 726.892 328.224L724.058 329.957L723.633 327.213H723.775L533.233 215.014C531.817 214.436 530.542 212.126 530.825 210.393Z" fill="url(#paint1_linear_13_25)"/>
<path d="M748.708 179.78L751.825 178.336C752.108 179.202 752.392 180.068 752.25 180.79L728.025 327.069C727.883 327.791 727.458 328.369 727.033 328.513L724.2 330.246L723.775 327.502H723.917L714.283 321.871L748.708 179.78Z" fill="url(#paint2_linear_13_25)"/>
<path d="M530.4 217.18L722.075 329.957C723.492 330.823 724.767 330.39 725.05 328.802L749.275 182.523C749.558 180.79 748.425 178.48 746.725 177.614L555.05 64.8362C553.633 63.9698 552.358 64.403 552.075 65.9914L527.85 212.27C527.567 213.858 528.7 216.169 530.4 217.18Z" fill="#24126A"/>
<g opacity="0.51">
<path d="M554.342 67.4354L747.008 180.79L722.642 327.358L530.117 214.147L554.342 67.4354Z" fill="#453C9E"/>
</g>
<path d="M409.842 286.348L420.325 291.979L525.3 230.176C527 229.165 530.117 229.309 532.1 230.465L713.008 336.888C714.708 335.878 722.642 331.979 722.642 331.979L718.817 338.332C718.675 338.766 718.25 339.199 717.683 339.488L607.183 404.468C605.483 405.479 602.367 405.335 600.383 404.179L415.225 295.156C414.375 294.723 413.95 294.146 413.667 293.424L409.842 286.348Z" fill="url(#paint3_linear_13_25)"/>
<path d="M411.4 288.081L601.092 399.703C603.217 400.858 606.334 401.003 608.175 399.992L721.367 333.423C723.209 332.412 722.925 330.535 720.8 329.235L531.25 217.613C529.125 216.458 526.009 216.313 524.167 217.324L410.975 283.893C409.134 285.048 409.417 286.925 411.4 288.081Z" fill="url(#paint4_linear_13_25)"/>
<path d="M411.4 287.214L601.092 398.837C603.217 399.992 606.333 400.136 608.175 399.125L721.367 332.556C721.933 332.123 722.358 331.69 722.5 331.257C722.642 332.123 722.358 332.845 721.367 333.423L608.175 399.992C606.333 401.003 603.217 400.858 601.092 399.703L411.4 288.081C409.983 287.359 409.558 286.203 409.7 285.337C409.983 286.059 410.55 286.637 411.4 287.214Z" fill="white"/>
<g opacity="0.15">
<mask id="mask0_13_25" style="mask-type:luminance" maskUnits="userSpaceOnUse" x="530" y="67" width="218" height="261">
<path d="M747.008 180.79L554.342 67.4354L530.117 214.147L722.642 327.358L747.008 180.79Z" fill="white"/>
</mask>
<g mask="url(#mask0_13_25)">
<path d="M530.117 216.169L540.6 221.8L645.575 159.997C647.275 158.986 650.392 159.13 652.375 160.285L833.283 266.709C834.983 265.698 842.917 261.8 842.917 261.8L839.092 268.153C838.95 268.586 838.525 269.02 837.958 269.308L727.458 334.289C725.758 335.3 722.642 335.156 720.658 334L535.5 225.266C534.65 224.833 534.225 224.255 533.942 223.533L530.117 216.169Z" fill="url(#paint5_linear_13_25)"/>
<path d="M531.675 217.902L721.367 329.524C723.492 330.679 726.608 330.823 728.45 329.813L841.642 263.244C843.483 262.233 843.2 260.356 841.075 259.056L651.383 147.434C649.258 146.279 646.142 146.134 644.3 147.145L531.25 213.858C529.408 214.869 529.692 216.746 531.675 217.902Z" fill="url(#paint6_linear_13_25)"/>
<path d="M841.217 259.2L651.525 147.578C650.25 146.856 648.408 146.423 646.85 146.567C647.983 146.712 649.258 147.001 650.108 147.578L839.8 259.2C841.925 260.356 842.067 262.233 840.367 263.388L727.175 329.957C726.467 330.39 725.758 330.535 724.908 330.679C726.325 330.823 727.6 330.535 728.592 329.957L841.783 263.388C843.483 262.233 843.342 260.356 841.217 259.2Z" fill="white"/>
<g opacity="0.5">
<path d="M631.125 198.696L625.033 195.086C624.608 194.797 623.758 194.797 623.192 195.086L616.392 199.129C615.825 199.418 615.825 199.996 616.25 200.285L622.342 203.895C622.767 204.183 623.617 204.183 624.183 203.895L630.983 199.851C631.55 199.563 631.55 198.985 631.125 198.696Z" fill="#24126A"/>
<path d="M640.475 204.328L634.383 200.718C633.958 200.429 633.108 200.429 632.542 200.718L625.742 204.761C625.175 205.05 625.175 205.628 625.6 205.916L631.692 209.526C632.117 209.815 632.967 209.815 633.533 209.526L640.333 205.483C640.9 205.05 641.042 204.617 640.475 204.328Z" fill="#24126A"/>
<path d="M649.825 209.815L643.733 206.205C643.308 205.916 642.458 205.916 641.892 206.205L635.092 210.248C634.525 210.537 634.525 211.115 634.95 211.404L641.042 215.014C641.467 215.302 642.317 215.302 642.883 215.014L649.683 210.97C650.392 210.537 650.392 210.104 649.825 209.815Z" fill="#24126A"/>
<path d="M642.742 217.18L636.65 213.57C636.225 213.281 635.375 213.281 634.808 213.57L629.142 216.891C628.575 217.18 628.575 217.757 629 218.046L635.092 221.656C635.517 221.945 636.367 221.945 636.933 221.656L642.6 218.335C643.167 217.902 643.167 217.468 642.742 217.18Z" fill="#24126A"/>
<path d="M652.092 222.667L646 219.057C645.575 218.768 644.725 218.768 644.158 219.057L638.492 222.378C637.925 222.667 637.925 223.244 638.35 223.533L644.442 227.143C644.867 227.432 645.717 227.432 646.283 227.143L651.95 223.822C652.658 223.389 652.658 222.956 652.092 222.667Z" fill="#24126A"/>
<path d="M661.583 228.154L655.492 224.544C655.067 224.255 654.217 224.255 653.65 224.544L647.983 227.865C647.417 228.154 647.417 228.732 647.842 229.021L653.933 232.631C654.358 232.919 655.208 232.919 655.775 232.631L661.442 229.309C662.008 229.021 662.008 228.443 661.583 228.154Z" fill="#24126A"/>
<path d="M670.933 233.786L664.842 230.176C664.417 229.887 663.567 229.887 663 230.176L657.333 233.497C656.767 233.786 656.767 234.363 657.192 234.652L663.283 238.262C663.708 238.551 664.558 238.551 665.125 238.262L670.792 234.941C671.358 234.508 671.358 234.075 670.933 233.786Z" fill="#24126A"/>
<path d="M680.283 239.273L674.192 235.663C673.767 235.374 672.917 235.374 672.35 235.663L666.683 238.984C666.117 239.273 666.117 239.851 666.542 240.139L672.633 243.749C673.058 244.038 673.908 244.038 674.475 243.749L680.142 240.428C680.708 239.995 680.85 239.562 680.283 239.273Z" fill="#24126A"/>
<path d="M689.775 244.76L683.683 241.15C683.258 240.861 682.408 240.861 681.842 241.15L676.175 244.471C675.608 244.76 675.608 245.338 676.033 245.627L682.125 249.237C682.55 249.526 683.4 249.526 683.967 249.237L689.633 245.915C690.2 245.627 690.2 245.049 689.775 244.76Z" fill="#24126A"/>
<path d="M699.125 250.248L693.033 246.637C692.608 246.349 691.758 246.349 691.192 246.637L685.525 249.959C684.958 250.248 684.958 250.825 685.383 251.114L691.475 254.724C691.9 255.013 692.75 255.013 693.317 254.724L698.983 251.403C699.55 251.114 699.55 250.536 699.125 250.248Z" fill="#24126A"/>
<path d="M708.475 255.879L702.383 252.269C701.958 251.98 701.108 251.98 700.542 252.269L694.875 255.59C694.308 255.879 694.308 256.457 694.733 256.746L700.825 260.356C701.25 260.644 702.1 260.644 702.667 260.356L708.333 257.034C708.9 256.601 709.042 256.168 708.475 255.879Z" fill="#24126A"/>
<path d="M717.825 261.366L711.733 257.756C711.308 257.468 710.458 257.468 709.892 257.756L704.225 261.078C703.658 261.366 703.658 261.944 704.083 262.233L710.175 265.843C710.6 266.132 711.45 266.132 712.017 265.843L717.683 262.522C718.392 262.088 718.392 261.655 717.825 261.366Z" fill="#24126A"/>
<path d="M727.317 266.854L721.225 263.244C720.8 262.955 719.95 262.955 719.383 263.244L713.717 266.565C713.15 266.854 713.15 267.431 713.575 267.72L719.667 271.33C720.092 271.619 720.942 271.619 721.508 271.33L727.175 268.009C727.742 267.72 727.742 267.142 727.317 266.854Z" fill="#24126A"/>
<path d="M638.775 224.977L632.683 221.367C632.258 221.078 631.408 221.078 630.842 221.367L625.175 224.688C624.608 224.977 624.608 225.555 625.033 225.844L631.125 229.454C631.55 229.743 632.4 229.743 632.967 229.454L638.633 226.133C639.342 225.844 639.342 225.266 638.775 224.977Z" fill="#24126A"/>
<path d="M629.283 219.49L623.192 215.88C622.767 215.591 621.917 215.591 621.35 215.88L615.683 219.201C615.117 219.49 615.117 220.068 615.542 220.356L621.633 223.966C622.058 224.255 622.908 224.255 623.475 223.966L629.142 220.645C629.708 220.212 629.85 219.779 629.283 219.49Z" fill="#24126A"/>
<path d="M619.792 213.858L606.758 206.205C606.333 205.916 605.483 205.916 604.917 206.205L599.25 209.526C598.683 209.815 598.683 210.393 599.108 210.682L612.142 218.335C612.567 218.624 613.417 218.624 613.983 218.335L619.65 215.014C620.217 214.58 620.217 214.147 619.792 213.858Z" fill="#24126A"/>
<path d="M608.6 217.468L597.975 211.259C597.55 210.97 596.7 210.97 596.133 211.259L590.467 214.58C589.9 214.869 589.9 215.447 590.325 215.736L600.95 221.945C601.375 222.234 602.225 222.234 602.792 221.945L608.458 218.624C609.167 218.19 609.167 217.757 608.6 217.468Z" fill="#24126A"/>
<path d="M648.267 230.609L642.175 226.999C641.75 226.71 640.9 226.71 640.333 226.999L634.667 230.32C634.1 230.609 634.1 231.187 634.525 231.475L640.617 235.085C641.042 235.374 641.892 235.374 642.458 235.085L648.125 231.764C648.692 231.331 648.692 230.898 648.267 230.609Z" fill="#24126A"/>
<path d="M657.617 236.096L651.525 232.486C651.1 232.197 650.25 232.197 649.683 232.486L644.017 235.807C643.45 236.096 643.45 236.674 643.875 236.963L649.967 240.573C650.392 240.861 651.242 240.861 651.808 240.573L657.475 237.251C658.042 236.818 658.042 236.385 657.617 236.096Z" fill="#24126A"/>
<path d="M666.967 241.583L660.875 237.973C660.45 237.685 659.6 237.685 659.033 237.973L653.367 241.295C652.8 241.583 652.8 242.161 653.225 242.45L659.317 246.06C659.742 246.349 660.592 246.349 661.158 246.06L666.825 242.739C667.533 242.45 667.533 241.872 666.967 241.583Z" fill="#24126A"/>
<path d="M676.458 247.215L670.367 243.605C669.942 243.316 669.092 243.316 668.525 243.605L662.858 246.926C662.292 247.215 662.292 247.793 662.717 248.081L668.808 251.692C669.233 251.98 670.083 251.98 670.65 251.692L676.317 248.37C676.883 247.937 676.883 247.504 676.458 247.215Z" fill="#24126A"/>
<path d="M685.808 252.702L679.717 249.092C679.292 248.803 678.442 248.803 677.875 249.092L672.208 252.414C671.642 252.702 671.642 253.28 672.067 253.569L678.158 257.179C678.583 257.468 679.433 257.468 680 257.179L685.667 253.858C686.233 253.424 686.233 252.991 685.808 252.702Z" fill="#24126A"/>
<path d="M695.158 258.19L689.067 254.58C688.642 254.291 687.792 254.291 687.225 254.58L681.558 257.901C680.992 258.19 680.992 258.767 681.417 259.056L687.508 262.666C687.933 262.955 688.783 262.955 689.35 262.666L695.017 259.345C695.583 259.056 695.725 258.478 695.158 258.19Z" fill="#24126A"/>
<path d="M704.65 263.677L698.558 260.067C698.133 259.778 697.283 259.778 696.717 260.067L691.05 263.388C690.483 263.677 690.483 264.254 690.908 264.543L697 268.153C697.425 268.442 698.275 268.442 698.842 268.153L704.508 264.832C705.075 264.543 705.075 263.966 704.65 263.677Z" fill="#24126A"/>
<path d="M714 269.308L707.908 265.698C707.483 265.41 706.633 265.41 706.067 265.698L700.4 269.02C699.833 269.308 699.833 269.886 700.258 270.175L706.35 273.785C706.775 274.074 707.625 274.074 708.192 273.785L713.858 270.464C714.425 270.03 714.425 269.597 714 269.308Z" fill="#24126A"/>
<path d="M723.35 274.796L717.258 271.186C716.833 270.897 715.983 270.897 715.417 271.186L709.75 274.507C709.183 274.796 709.183 275.373 709.608 275.662L715.7 279.272C716.125 279.561 716.975 279.561 717.542 279.272L723.208 275.951C723.775 275.518 723.917 275.085 723.35 274.796Z" fill="#24126A"/>
<path d="M740.067 284.615L726.75 276.817C726.325 276.529 725.475 276.529 724.908 276.817L719.242 280.139C718.675 280.427 718.675 281.005 719.1 281.294L732.417 289.091C732.842 289.38 733.692 289.38 734.258 289.091L739.925 285.77C740.492 285.337 740.492 284.904 740.067 284.615Z" fill="#24126A"/>
<path d="M722.783 294.868L711.592 288.225C711.167 287.936 710.317 287.936 709.75 288.225L704.083 291.546C703.517 291.835 703.517 292.413 703.942 292.701L715.133 299.344C715.558 299.633 716.408 299.633 716.975 299.344L722.642 296.023C723.35 295.59 723.35 295.156 722.783 294.868Z" fill="#24126A"/>
<path d="M646.85 239.995L640.758 236.385C640.333 236.096 639.483 236.096 638.917 236.385L633.25 239.706C632.683 239.995 632.683 240.573 633.108 240.861L639.2 244.471C639.625 244.76 640.475 244.76 641.042 244.471L646.708 241.15C647.417 240.717 647.417 240.284 646.85 239.995Z" fill="#24126A"/>
<path d="M637.358 234.363L631.267 230.753C630.842 230.465 629.992 230.465 629.425 230.753L623.758 234.075C623.192 234.363 623.192 234.941 623.617 235.23L629.708 238.84C630.133 239.129 630.983 239.129 631.55 238.84L637.217 235.519C637.783 235.085 637.783 234.652 637.358 234.363Z" fill="#24126A"/>
<path d="M627.725 228.732L621.633 225.122C621.208 224.833 620.358 224.833 619.792 225.122L614.125 228.443C613.558 228.732 613.558 229.309 613.983 229.598L620.075 233.208C620.5 233.497 621.35 233.497 621.917 233.208L627.583 229.887C628.15 229.454 628.15 229.021 627.725 228.732Z" fill="#24126A"/>
<path d="M618.092 222.956L612 219.49C611.575 219.201 610.725 219.201 610.158 219.49L604.492 222.811C603.925 223.1 603.925 223.678 604.35 223.966L610.442 227.577C610.867 227.865 611.717 227.865 612.283 227.577L617.95 224.255C618.517 223.822 618.517 223.244 618.092 222.956Z" fill="#24126A"/>
<path d="M656.342 245.482L650.25 241.872C649.825 241.583 648.975 241.583 648.408 241.872L642.742 245.193C642.175 245.482 642.175 246.06 642.6 246.349L648.692 249.959C649.117 250.248 649.967 250.248 650.533 249.959L656.2 246.637C656.767 246.349 656.767 245.771 656.342 245.482Z" fill="#24126A"/>
<path d="M665.692 251.114L659.6 247.504C659.175 247.215 658.325 247.215 657.758 247.504L652.092 250.825C651.525 251.114 651.525 251.692 651.95 251.98L658.042 255.59C658.467 255.879 659.317 255.879 659.883 255.59L665.55 252.269C666.117 251.836 666.258 251.403 665.692 251.114Z" fill="#24126A"/>
<path d="M675.042 256.601L668.95 252.991C668.525 252.702 667.675 252.702 667.108 252.991L661.442 256.312C660.875 256.601 660.875 257.179 661.3 257.468L667.392 261.078C667.817 261.366 668.667 261.366 669.233 261.078L674.9 257.756C675.608 257.323 675.608 256.89 675.042 256.601Z" fill="#24126A"/>
<path d="M684.533 262.088L678.442 258.478C678.017 258.19 677.167 258.19 676.6 258.478L670.933 261.8C670.367 262.088 670.367 262.666 670.792 262.955L676.883 266.565C677.308 266.854 678.158 266.854 678.725 266.565L684.392 263.244C684.958 262.955 684.958 262.377 684.533 262.088Z" fill="#24126A"/>
<path d="M693.883 267.576L687.792 263.966C687.367 263.677 686.517 263.677 685.95 263.966L680.283 267.287C679.717 267.576 679.717 268.153 680.142 268.442L686.233 272.052C686.658 272.341 687.508 272.341 688.075 272.052L693.742 268.731C694.308 268.442 694.308 267.864 693.883 267.576Z" fill="#24126A"/>
<path d="M703.233 273.207L697.142 269.597C696.717 269.308 695.867 269.308 695.3 269.597L689.633 272.919C689.067 273.207 689.067 273.785 689.492 274.074L695.583 277.684C696.008 277.973 696.858 277.973 697.425 277.684L703.092 274.363C703.8 273.929 703.8 273.496 703.233 273.207Z" fill="#24126A"/>
<path d="M712.725 278.695L706.633 275.085C706.208 274.796 705.358 274.796 704.792 275.085L699.125 278.406C698.558 278.695 698.558 279.272 698.983 279.561L705.075 283.171C705.5 283.46 706.35 283.46 706.917 283.171L712.583 279.85C713.15 279.417 713.15 278.983 712.725 278.695Z" fill="#24126A"/>
<path d="M722.075 284.182L715.983 280.572C715.558 280.283 714.708 280.283 714.142 280.572L708.475 283.893C707.908 284.182 707.908 284.759 708.333 285.048L714.425 288.658C714.85 288.947 715.7 288.947 716.267 288.658L721.933 285.337C722.5 285.048 722.5 284.471 722.075 284.182Z" fill="#24126A"/>
<path d="M731.425 289.813L725.333 286.203C724.908 285.915 724.058 285.915 723.492 286.203L717.825 289.525C717.258 289.813 717.258 290.391 717.683 290.68L723.775 294.29C724.2 294.579 725.05 294.579 725.617 294.29L731.283 290.969C731.85 290.535 731.992 290.102 731.425 289.813Z" fill="#24126A"/>
<path d="M624.183 236.818L618.092 233.208C617.667 232.919 616.817 232.919 616.25 233.208L610.583 236.529C610.017 236.818 610.017 237.396 610.442 237.685L616.533 241.295C616.958 241.583 617.808 241.583 618.375 241.295L624.042 237.973C624.608 237.54 624.75 237.107 624.183 236.818Z" fill="#24126A"/>
<path d="M614.833 231.331L608.742 227.721C608.317 227.432 607.467 227.432 606.9 227.721L601.233 231.042C600.667 231.331 600.667 231.909 601.092 232.197L607.183 235.807C607.608 236.096 608.458 236.096 609.025 235.807L614.692 232.486C615.258 232.053 615.4 231.62 614.833 231.331Z" fill="#24126A"/>
<path d="M605.483 225.844L599.392 222.234C598.967 221.945 598.117 221.945 597.55 222.234L591.883 225.555C591.317 225.844 591.317 226.421 591.742 226.71L597.833 230.32C598.258 230.609 599.108 230.609 599.675 230.32L605.342 226.999C606.05 226.566 606.05 226.132 605.483 225.844Z" fill="#24126A"/>
<path d="M596.133 220.356L590.042 216.746C589.617 216.458 588.767 216.458 588.2 216.746L582.533 220.068C581.967 220.356 581.967 220.934 582.392 221.223L588.483 224.833C588.908 225.122 589.758 225.122 590.325 224.833L595.992 221.512C596.7 221.078 596.7 220.645 596.133 220.356Z" fill="#24126A"/>
<path d="M587.067 225.699L580.975 222.089C580.55 221.8 579.7 221.8 579.133 222.089L577.292 223.244C576.725 223.533 576.725 224.111 577.15 224.4L583.242 228.01C583.667 228.298 584.517 228.298 585.083 228.01L586.925 226.855C587.633 226.566 587.633 225.988 587.067 225.699Z" fill="#24126A"/>
<path d="M599.392 232.919L593.3 229.309C592.875 229.021 592.025 229.021 591.458 229.309L589.617 230.465C589.05 230.753 589.05 231.331 589.475 231.62L595.567 235.23C595.992 235.519 596.842 235.519 597.408 235.23L599.25 234.075C599.817 233.641 599.817 233.208 599.392 232.919Z" fill="#24126A"/>
<path d="M608.6 238.407L602.508 234.797C602.083 234.508 601.233 234.508 600.667 234.797L598.825 235.952C598.258 236.241 598.258 236.818 598.683 237.107L604.775 240.717C605.2 241.006 606.05 241.006 606.617 240.717L608.458 239.562C609.025 239.129 609.167 238.695 608.6 238.407Z" fill="#24126A"/>
<path d="M617.95 243.894L611.858 240.284C611.433 239.995 610.583 239.995 610.017 240.284L608.175 241.439C607.608 241.728 607.608 242.305 608.033 242.594L614.125 246.204C614.55 246.493 615.4 246.493 615.967 246.204L617.808 245.049C618.375 244.616 618.375 244.183 617.95 243.894Z" fill="#24126A"/>
<path d="M627.3 249.381L621.208 245.771C620.783 245.482 619.933 245.482 619.367 245.771L617.525 246.926C616.958 247.215 616.958 247.793 617.383 248.081L623.475 251.692C623.9 251.98 624.75 251.98 625.317 251.692L627.158 250.536C627.725 250.103 627.725 249.67 627.3 249.381Z" fill="#24126A"/>
<path d="M679.15 279.85L673.058 276.24C672.633 275.951 671.783 275.951 671.217 276.24L669.375 277.395C668.808 277.684 668.808 278.261 669.233 278.55L675.325 282.16C675.75 282.449 676.6 282.449 677.167 282.16L679.008 281.005C679.717 280.716 679.717 280.139 679.15 279.85Z" fill="#24126A"/>
<path d="M688.5 285.337L682.408 281.727C681.983 281.438 681.133 281.438 680.567 281.727L678.725 282.882C678.158 283.171 678.158 283.749 678.583 284.037L684.675 287.647C685.1 287.936 685.95 287.936 686.517 287.647L688.358 286.492C688.925 286.203 689.067 285.626 688.5 285.337Z" fill="#24126A"/>
<path d="M697.85 290.824L691.758 287.214C691.333 286.925 690.483 286.925 689.917 287.214L688.075 288.369C687.508 288.658 687.508 289.236 687.933 289.525L694.025 293.135C694.45 293.424 695.3 293.424 695.867 293.135L697.708 291.979C698.275 291.691 698.275 291.113 697.85 290.824Z" fill="#24126A"/>
<path d="M707.2 296.312L701.108 292.702C700.683 292.413 699.833 292.413 699.267 292.702L697.425 293.857C696.858 294.146 696.858 294.723 697.283 295.012L703.375 298.622C703.8 298.911 704.65 298.911 705.217 298.622L707.058 297.467C707.625 297.178 707.625 296.6 707.2 296.312Z" fill="#24126A"/>
<path d="M633.675 242.305L627.583 238.695C627.158 238.407 626.308 238.407 625.742 238.695L620.075 242.017C619.508 242.305 619.508 242.883 619.933 243.172L626.025 246.782C626.45 247.071 627.3 247.071 627.867 246.782L633.533 243.461C634.1 243.172 634.1 242.594 633.675 242.305Z" fill="#24126A"/>
<path d="M643.025 247.937L636.933 244.327C636.508 244.038 635.658 244.038 635.092 244.327L629.425 247.648C628.858 247.937 628.858 248.515 629.283 248.803L635.375 252.414C635.8 252.702 636.65 252.702 637.217 252.414L642.883 249.092C643.45 248.659 643.45 248.226 643.025 247.937Z" fill="#24126A"/>
<path d="M652.375 253.424L646.283 249.814C645.858 249.526 645.008 249.526 644.442 249.814L638.775 253.136C638.208 253.424 638.208 254.002 638.633 254.291L644.725 257.901C645.15 258.19 646 258.19 646.567 257.901L652.233 254.58C652.8 254.146 652.942 253.713 652.375 253.424Z" fill="#24126A"/>
<path d="M661.725 258.912L655.633 255.302C655.208 255.013 654.358 255.013 653.792 255.302L648.125 258.623C647.558 258.912 647.558 259.489 647.983 259.778L654.075 263.388C654.5 263.677 655.35 263.677 655.917 263.388L661.583 260.067C662.292 259.778 662.292 259.2 661.725 258.912Z" fill="#24126A"/>
<path d="M671.217 264.399L665.125 260.789C664.7 260.5 663.85 260.5 663.283 260.789L657.617 264.11C657.05 264.399 657.05 264.976 657.475 265.265L663.567 268.875C663.992 269.164 664.842 269.164 665.408 268.875L671.075 265.554C671.642 265.265 671.642 264.688 671.217 264.399Z" fill="#24126A"/>
<path d="M680.567 270.03L674.475 266.42C674.05 266.132 673.2 266.132 672.633 266.42L666.967 269.742C666.4 270.03 666.4 270.608 666.825 270.897L672.917 274.507C673.342 274.796 674.192 274.796 674.758 274.507L680.425 271.186C680.992 270.753 681.133 270.319 680.567 270.03Z" fill="#24126A"/>
<path d="M689.917 275.518L683.825 271.908C683.4 271.619 682.55 271.619 681.983 271.908L676.317 275.229C675.75 275.518 675.75 276.095 676.175 276.384L682.267 279.994C682.692 280.283 683.542 280.283 684.108 279.994L689.775 276.673C690.483 276.24 690.483 275.807 689.917 275.518Z" fill="#24126A"/>
<path d="M699.408 281.005L693.317 277.395C692.892 277.106 692.042 277.106 691.475 277.395L685.808 280.716C685.242 281.005 685.242 281.583 685.667 281.871L691.758 285.481C692.183 285.77 693.033 285.77 693.6 285.481L699.267 282.16C699.833 281.871 699.833 281.294 699.408 281.005Z" fill="#24126A"/>
<path d="M708.758 286.637L702.667 283.027C702.242 282.738 701.392 282.738 700.825 283.027L695.158 286.348C694.592 286.637 694.592 287.214 695.017 287.503L701.108 291.113C701.533 291.402 702.383 291.402 702.95 291.113L708.617 287.792C709.183 287.359 709.183 286.925 708.758 286.637Z" fill="#24126A"/>
<path d="M633.108 211.548L615.258 201.007C614.833 200.718 613.983 200.718 613.417 201.007L607.75 204.328C607.183 204.617 607.183 205.194 607.608 205.483L625.458 216.024C625.883 216.313 626.733 216.313 627.3 216.024L632.967 212.703C633.675 212.27 633.675 211.837 633.108 211.548Z" fill="#24126A"/>
<path d="M748.567 279.417L730.717 268.875C730.292 268.586 729.442 268.586 728.875 268.875L723.208 272.197C722.642 272.485 722.642 273.063 723.067 273.352L740.917 283.893C741.342 284.182 742.192 284.182 742.758 283.893L748.425 280.572C748.992 280.139 748.992 279.705 748.567 279.417Z" fill="#24126A"/>
<path d="M731.142 257.612L725.05 254.002C724.625 253.713 723.775 253.713 723.208 254.002L716.408 258.045C715.842 258.334 715.842 258.912 716.267 259.2L722.358 262.81C722.783 263.099 723.633 263.099 724.2 262.81L731 258.767C731.567 258.334 731.567 257.901 731.142 257.612Z" fill="#24126A"/>
<path d="M663 217.468L653.225 211.692C652.8 211.404 651.95 211.404 651.383 211.692L644.583 215.736C644.017 216.024 644.017 216.602 644.442 216.891L654.217 222.667C654.642 222.956 655.492 222.956 656.058 222.667L662.858 218.624C663.425 218.19 663.425 217.757 663 217.468Z" fill="#24126A"/>
<path d="M722.075 252.269L712.3 246.493C711.875 246.204 711.025 246.204 710.458 246.493L703.658 250.536C703.092 250.825 703.092 251.403 703.517 251.692L713.292 257.468C713.717 257.756 714.567 257.756 715.133 257.468L721.933 253.424C722.5 252.991 722.642 252.558 722.075 252.269Z" fill="#24126A"/>
<path d="M676.458 225.41L666.683 219.634C666.258 219.346 665.408 219.346 664.842 219.634L658.042 223.678C657.475 223.966 657.475 224.544 657.9 224.833L667.675 230.609C668.1 230.898 668.95 230.898 669.517 230.609L676.317 226.566C676.883 226.277 677.025 225.699 676.458 225.41Z" fill="#24126A"/>
<path d="M658.183 224.977L700.542 249.814C701.108 250.103 701.958 250.103 702.383 249.814L709.325 245.771C709.75 245.482 709.75 245.049 709.325 244.616L666.967 219.779L658.183 224.977Z" fill="#24126A"/>
<path d="M738.933 267.287L745.733 271.33C746.158 271.619 746.867 271.474 747.292 271.33L750.125 269.742C750.55 269.453 750.55 269.02 750.125 268.875L743.325 264.832C742.9 264.543 742.192 264.688 741.767 264.832L738.933 266.42C738.65 266.709 738.508 267.142 738.933 267.287Z" fill="#24126A"/>
<path d="M729.583 261.8L736.383 265.843C736.808 266.132 737.517 265.987 737.942 265.843L740.775 264.254C741.2 263.966 741.2 263.532 740.775 263.388L733.975 259.345C733.55 259.056 732.842 259.2 732.417 259.345L729.583 260.933C729.158 261.222 729.158 261.655 729.583 261.8Z" fill="#24126A"/>
<path d="M734.117 270.319L740.917 274.363C741.342 274.651 742.05 274.507 742.475 274.363L745.308 272.774C745.733 272.485 745.733 272.052 745.308 271.908L738.508 267.864C738.083 267.576 737.375 267.72 736.95 267.864L734.117 269.453C733.692 269.597 733.692 270.03 734.117 270.319Z" fill="#24126A"/>
</g>
</g>
</g>
<g opacity="0.8">
<path d="M498.667 275.807L492.575 272.197C492.15 271.908 492.15 271.475 492.717 271.041L499.8 266.854C500.367 266.565 501.217 266.42 501.642 266.709L507.733 270.319C508.158 270.608 508.158 271.041 507.592 271.475L500.508 275.662C500.083 275.951 499.233 276.095 498.667 275.807Z" fill="#24126A"/>
<path d="M508.017 281.294L501.925 277.684C501.5 277.395 501.5 276.962 502.067 276.529L509.15 272.341C509.717 272.052 510.567 271.908 510.992 272.197L517.083 275.807C517.508 276.095 517.508 276.529 516.942 276.962L509.858 281.149C509.292 281.438 508.583 281.583 508.017 281.294Z" fill="#24126A"/>
<path d="M517.367 286.637L511.275 283.027C510.85 282.738 510.85 282.305 511.417 281.871L518.5 277.684C519.067 277.395 519.917 277.251 520.342 277.539L526.433 281.149C526.858 281.438 526.858 281.871 526.292 282.305L519.208 286.492C518.642 286.925 517.792 286.925 517.367 286.637Z" fill="#24126A"/>
<path d="M530.258 282.16L524.167 278.695C523.742 278.406 523.742 277.973 524.308 277.539L530.258 274.074C530.825 273.785 531.675 273.641 532.1 273.929L538.192 277.539C538.617 277.828 538.617 278.261 538.05 278.695L532.1 282.16C531.533 282.449 530.683 282.449 530.258 282.16Z" fill="#24126A"/>
<path d="M539.467 287.647L533.375 284.037C532.95 283.749 532.95 283.315 533.517 282.882L539.467 279.417C540.033 279.128 540.883 278.983 541.308 279.272L547.4 282.882C547.825 283.171 547.825 283.604 547.258 284.037L541.308 287.503C540.883 287.936 540.033 287.936 539.467 287.647Z" fill="#24126A"/>
<path d="M548.817 293.135L542.725 289.525C542.3 289.236 542.3 288.803 542.867 288.369L548.817 284.904C549.383 284.615 550.233 284.471 550.658 284.759L556.75 288.369C557.175 288.658 557.175 289.091 556.608 289.525L550.658 292.99C550.092 293.424 549.242 293.424 548.817 293.135Z" fill="#24126A"/>
<path d="M558.167 298.622L552.075 295.012C551.65 294.723 551.65 294.29 552.217 293.857L558.167 290.391C558.733 290.102 559.583 289.958 560.008 290.247L566.1 293.857C566.525 294.146 566.525 294.579 565.958 295.012L560.008 298.478C559.442 298.911 558.592 298.911 558.167 298.622Z" fill="#24126A"/>
<path d="M567.375 304.109L561.283 300.499C560.858 300.21 560.858 299.777 561.425 299.344L567.375 295.878C567.942 295.59 568.792 295.445 569.217 295.734L575.308 299.344C575.733 299.633 575.733 300.066 575.167 300.499L569.217 303.965C568.792 304.398 567.942 304.398 567.375 304.109Z" fill="#24126A"/>
<path d="M576.725 309.596L570.633 305.986C570.208 305.698 570.208 305.264 570.775 304.831L576.725 301.366C577.292 301.077 578.142 300.932 578.567 301.221L584.658 304.831C585.083 305.12 585.083 305.553 584.517 305.986L578.567 309.452C578 309.741 577.15 309.885 576.725 309.596Z" fill="#24126A"/>
<path d="M586.075 315.084L579.983 311.474C579.558 311.185 579.558 310.752 580.125 310.318L586.075 306.853C586.642 306.564 587.492 306.42 587.917 306.708L594.008 310.318C594.433 310.607 594.433 311.04 593.867 311.474L587.917 314.939C587.35 315.228 586.5 315.373 586.075 315.084Z" fill="#24126A"/>
<path d="M595.283 320.571L589.192 316.961C588.767 316.672 588.767 316.239 589.333 315.806L595.283 312.34C595.85 312.051 596.7 311.907 597.125 312.196L603.217 315.806C603.642 316.095 603.642 316.528 603.075 316.961L597.125 320.427C596.7 320.715 595.85 320.86 595.283 320.571Z" fill="#24126A"/>
<path d="M604.633 325.914L598.542 322.304C598.117 322.015 598.117 321.582 598.683 321.149L604.633 317.683C605.2 317.394 606.05 317.25 606.475 317.539L612.567 321.149C612.992 321.437 612.992 321.871 612.425 322.304L606.475 325.769C605.908 326.203 605.058 326.203 604.633 325.914Z" fill="#24126A"/>
<path d="M613.983 331.401L607.892 327.791C607.467 327.502 607.467 327.069 608.033 326.636L613.983 323.17C614.55 322.881 615.4 322.737 615.825 323.026L621.917 326.636C622.342 326.925 622.342 327.358 621.775 327.791L615.825 331.257C615.258 331.69 614.408 331.69 613.983 331.401Z" fill="#24126A"/>
<path d="M543.858 279.561L537.767 275.951C537.342 275.662 537.342 275.229 537.908 274.796L543.858 271.33C544.425 271.041 545.275 270.897 545.7 271.186L551.792 274.796C552.217 275.085 552.217 275.518 551.65 275.951L545.7 279.417C545.275 279.85 544.425 279.85 543.858 279.561Z" fill="#24126A"/>
<path d="M534.508 274.074L528.417 270.464C527.992 270.175 527.992 269.742 528.558 269.308L534.508 265.843C535.075 265.554 535.925 265.41 536.35 265.698L542.442 269.308C542.867 269.597 542.867 270.031 542.3 270.464L536.35 273.929C535.783 274.218 534.933 274.363 534.508 274.074Z" fill="#24126A"/>
<path d="M525.017 268.442L511.983 260.789C511.558 260.5 511.558 260.067 512.125 259.634L518.075 256.168C518.642 255.879 519.492 255.735 519.917 256.024L532.95 263.677C533.375 263.966 533.375 264.399 532.808 264.832L526.858 268.298C526.292 268.731 525.442 268.731 525.017 268.442Z" fill="#24126A"/>
<path d="M531.675 261.655L521.192 255.446C520.767 255.157 520.767 254.724 521.333 254.291L527.283 250.825C527.85 250.536 528.7 250.392 529.125 250.681L539.608 256.89C540.033 257.179 540.033 257.612 539.467 258.045L533.517 261.511C532.95 261.944 532.1 261.944 531.675 261.655Z" fill="#24126A"/>
<path d="M553.208 285.048L547.117 281.438C546.692 281.149 546.692 280.716 547.258 280.283L553.208 276.817C553.775 276.529 554.625 276.384 555.05 276.673L561.142 280.283C561.567 280.572 561.567 281.005 561 281.438L555.05 284.904C554.483 285.337 553.633 285.337 553.208 285.048Z" fill="#24126A"/>
<path d="M562.558 290.535L556.467 286.925C556.042 286.637 556.042 286.203 556.608 285.77L562.558 282.305C563.125 282.016 563.975 281.871 564.4 282.16L570.492 285.77C570.917 286.059 570.917 286.492 570.35 286.925L564.4 290.391C563.833 290.824 562.983 290.824 562.558 290.535Z" fill="#24126A"/>
<path d="M571.767 296.023L565.675 292.413C565.25 292.124 565.25 291.691 565.817 291.257L571.767 287.792C572.333 287.503 573.183 287.359 573.608 287.647L579.7 291.257C580.125 291.546 580.125 291.98 579.558 292.413L573.608 295.878C573.183 296.312 572.333 296.312 571.767 296.023Z" fill="#24126A"/>
<path d="M581.117 301.51L575.025 297.9C574.6 297.611 574.6 297.178 575.167 296.745L581.117 293.279C581.683 292.99 582.533 292.846 582.958 293.135L589.05 296.745C589.475 297.034 589.475 297.467 588.908 297.9L582.958 301.366C582.392 301.799 581.542 301.799 581.117 301.51Z" fill="#24126A"/>
<path d="M590.467 306.997L584.375 303.387C583.95 303.098 583.95 302.665 584.517 302.232L590.467 298.766C591.033 298.478 591.883 298.333 592.308 298.622L598.4 302.232C598.825 302.521 598.825 302.954 598.258 303.387L592.308 306.853C591.742 307.286 590.892 307.286 590.467 306.997Z" fill="#24126A"/>
<path d="M599.675 312.484L593.583 308.874C593.158 308.586 593.158 308.152 593.725 307.719L599.675 304.254C600.242 303.965 601.092 303.82 601.517 304.109L607.608 307.719C608.033 308.008 608.033 308.441 607.467 308.874L601.517 312.34C601.092 312.629 600.242 312.773 599.675 312.484Z" fill="#24126A"/>
<path d="M609.025 317.972L602.933 314.362C602.508 314.073 602.508 313.64 603.075 313.207L609.025 309.741C609.592 309.452 610.442 309.308 610.867 309.596L616.958 313.207C617.383 313.495 617.383 313.929 616.817 314.362L610.867 317.827C610.3 318.116 609.45 318.261 609.025 317.972Z" fill="#24126A"/>
<path d="M618.375 323.459L612.283 319.849C611.858 319.56 611.858 319.127 612.425 318.694L618.375 315.228C618.942 314.939 619.792 314.795 620.217 315.084L626.308 318.694C626.733 318.983 626.733 319.416 626.167 319.849L620.217 323.315C619.65 323.603 618.8 323.748 618.375 323.459Z" fill="#24126A"/>
<path d="M627.583 328.802L621.492 325.192C621.067 324.903 621.067 324.47 621.633 324.037L627.583 320.571C628.15 320.282 629 320.138 629.425 320.427L635.517 324.037C635.942 324.325 635.942 324.759 635.375 325.192L629.425 328.657C629 329.091 628.15 329.091 627.583 328.802Z" fill="#24126A"/>
<path d="M644.158 338.621L630.983 330.823C630.558 330.535 630.558 330.101 631.125 329.668L637.075 326.203C637.642 325.914 638.492 325.769 638.917 326.058L652.092 333.856C652.517 334.145 652.517 334.578 651.95 335.011L646 338.477C645.433 338.91 644.583 338.91 644.158 338.621Z" fill="#24126A"/>
<path d="M662.292 327.935L651.242 321.437C650.817 321.149 650.817 320.715 651.383 320.282L657.333 316.817C657.9 316.528 658.75 316.383 659.175 316.672L670.225 323.17C670.65 323.459 670.65 323.892 670.083 324.325L664.133 327.791C663.567 328.224 662.717 328.224 662.292 327.935Z" fill="#24126A"/>
<path d="M569.5 284.037L563.408 280.427C562.983 280.139 562.983 279.705 563.55 279.272L569.5 275.807C570.067 275.518 570.917 275.373 571.342 275.662L577.433 279.272C577.858 279.561 577.858 279.994 577.292 280.427L571.342 283.893C570.775 284.182 569.925 284.326 569.5 284.037Z" fill="#24126A"/>
<path d="M560.008 278.406L553.917 274.796C553.492 274.507 553.492 274.074 554.058 273.641L560.008 270.175C560.575 269.886 561.425 269.742 561.85 270.031L567.942 273.641C568.367 273.929 568.367 274.363 567.8 274.796L561.85 278.261C561.283 278.695 560.433 278.695 560.008 278.406Z" fill="#24126A"/>
<path d="M550.375 272.774L544.283 269.164C543.858 268.875 543.858 268.442 544.425 268.009L550.375 264.543C550.942 264.254 551.792 264.11 552.217 264.399L558.308 268.009C558.733 268.298 558.733 268.731 558.167 269.164L552.217 272.63C551.792 273.063 550.942 273.063 550.375 272.774Z" fill="#24126A"/>
<path d="M540.883 267.142L534.792 263.532C534.367 263.244 534.367 262.81 534.933 262.377L540.883 258.912C541.45 258.623 542.3 258.478 542.725 258.767L548.817 262.377C549.242 262.666 549.242 263.099 548.675 263.532L542.725 266.998C542.158 267.431 541.45 267.431 540.883 267.142Z" fill="#24126A"/>
<path d="M578.85 289.525L572.758 285.915C572.333 285.626 572.333 285.193 572.9 284.759L578.85 281.294C579.417 281.005 580.267 280.861 580.692 281.149L586.783 284.759C587.208 285.048 587.208 285.481 586.642 285.915L580.692 289.38C580.125 289.669 579.275 289.813 578.85 289.525Z" fill="#24126A"/>
<path d="M588.058 295.012L581.967 291.402C581.542 291.113 581.542 290.68 582.108 290.247L588.058 286.781C588.625 286.492 589.475 286.348 589.9 286.637L595.992 290.247C596.417 290.535 596.417 290.969 595.85 291.402L589.9 294.868C589.475 295.156 588.625 295.301 588.058 295.012Z" fill="#24126A"/>
<path d="M597.408 300.355L591.317 296.745C590.892 296.456 590.892 296.023 591.458 295.59L597.408 292.124C597.975 291.835 598.825 291.691 599.25 291.98L605.342 295.59C605.767 295.878 605.767 296.312 605.2 296.745L599.25 300.355C598.683 300.644 597.833 300.644 597.408 300.355Z" fill="#24126A"/>
<path d="M606.758 305.842L600.667 302.232C600.242 301.943 600.242 301.51 600.808 301.077L606.758 297.611C607.325 297.322 608.175 297.178 608.6 297.467L614.692 301.077C615.117 301.366 615.117 301.799 614.55 302.232L608.6 305.698C608.033 306.131 607.183 306.131 606.758 305.842Z" fill="#24126A"/>
<path d="M615.967 311.329L609.875 307.719C609.45 307.43 609.45 306.997 610.017 306.564L615.967 303.098C616.533 302.81 617.383 302.665 617.808 302.954L623.9 306.564C624.325 306.853 624.325 307.286 623.758 307.719L617.808 311.185C617.383 311.618 616.533 311.618 615.967 311.329Z" fill="#24126A"/>
<path d="M625.317 316.817L619.225 313.206C618.8 312.918 618.8 312.484 619.367 312.051L625.317 308.586C625.883 308.297 626.733 308.152 627.158 308.441L633.25 312.051C633.675 312.34 633.675 312.773 633.108 313.206L627.158 316.672C626.592 317.105 625.742 317.105 625.317 316.817Z" fill="#24126A"/>
<path d="M634.667 322.304L628.575 318.694C628.15 318.405 628.15 317.972 628.717 317.539L634.667 314.073C635.233 313.784 636.083 313.64 636.508 313.928L642.6 317.539C643.025 317.827 643.025 318.261 642.458 318.694L636.508 322.159C635.942 322.593 635.092 322.593 634.667 322.304Z" fill="#24126A"/>
<path d="M643.875 327.791L637.783 324.181C637.358 323.892 637.358 323.459 637.925 323.026L643.875 319.56C644.442 319.271 645.292 319.127 645.717 319.416L651.808 323.026C652.233 323.315 652.233 323.748 651.667 324.181L645.717 327.647C645.292 328.08 644.442 328.08 643.875 327.791Z" fill="#24126A"/>
<path d="M653.225 333.278L647.133 329.668C646.708 329.379 646.708 328.946 647.275 328.513L653.225 325.047C653.792 324.759 654.642 324.614 655.067 324.903L661.158 328.513C661.583 328.802 661.583 329.235 661.017 329.668L655.067 333.134C654.5 333.567 653.65 333.567 653.225 333.278Z" fill="#24126A"/>
<path d="M564.542 270.464L558.45 266.854C558.025 266.565 558.025 266.132 558.592 265.698L564.542 262.233C565.108 261.944 565.958 261.8 566.383 262.088L572.475 265.698C572.9 265.987 572.9 266.42 572.333 266.854L566.383 270.319C565.958 270.753 565.108 270.753 564.542 270.464Z" fill="#24126A"/>
<path d="M555.333 264.976L549.242 261.366C548.817 261.078 548.817 260.644 549.383 260.211L555.333 256.746C555.9 256.457 556.75 256.312 557.175 256.601L563.267 260.211C563.692 260.5 563.692 260.933 563.125 261.366L557.175 264.832C556.608 265.265 555.758 265.265 555.333 264.976Z" fill="#24126A"/>
<path d="M546.125 259.634L540.033 256.024C539.608 255.735 539.608 255.302 540.175 254.868L546.125 251.403C546.692 251.114 547.542 250.97 547.967 251.258L554.058 254.868C554.483 255.157 554.483 255.59 553.917 256.024L547.967 259.489C547.4 259.778 546.55 259.778 546.125 259.634Z" fill="#24126A"/>
<path d="M536.775 254.146L530.683 250.536C530.258 250.248 530.258 249.814 530.825 249.381L536.775 245.915C537.342 245.627 538.192 245.482 538.617 245.771L544.708 249.381C545.133 249.67 545.133 250.103 544.567 250.536L538.617 254.002C538.192 254.435 537.342 254.435 536.775 254.146Z" fill="#24126A"/>
<path d="M546.408 248.515L540.317 244.905C539.892 244.616 539.892 244.183 540.458 243.749L542.442 242.594C543.008 242.305 543.858 242.161 544.283 242.45L550.375 246.06C550.8 246.349 550.8 246.782 550.233 247.215L548.25 248.37C547.683 248.804 546.833 248.804 546.408 248.515Z" fill="#24126A"/>
<path d="M558.45 255.59L552.358 251.98C551.933 251.692 551.933 251.258 552.5 250.825L554.483 249.67C555.05 249.381 555.9 249.237 556.325 249.526L562.417 253.136C562.842 253.424 562.842 253.858 562.275 254.291L560.292 255.446C559.725 255.879 558.875 255.879 558.45 255.59Z" fill="#24126A"/>
<path d="M567.658 261.078L561.567 257.468C561.142 257.179 561.142 256.746 561.708 256.312L563.692 255.157C564.258 254.868 565.108 254.724 565.533 255.013L571.625 258.623C572.05 258.912 572.05 259.345 571.483 259.778L569.5 260.933C568.933 261.366 568.083 261.366 567.658 261.078Z" fill="#24126A"/>
<path d="M576.867 266.42L570.775 262.81C570.35 262.522 570.35 262.088 570.917 261.655L572.9 260.5C573.467 260.211 574.317 260.067 574.742 260.356L580.833 263.966C581.258 264.254 581.258 264.688 580.692 265.121L578.708 266.276C578.142 266.709 577.292 266.709 576.867 266.42Z" fill="#24126A"/>
<path d="M586.075 271.908L579.983 268.298C579.558 268.009 579.558 267.576 580.125 267.142L582.108 265.987C582.675 265.698 583.525 265.554 583.95 265.843L590.042 269.453C590.467 269.742 590.467 270.175 589.9 270.608L587.917 271.763C587.35 272.197 586.5 272.197 586.075 271.908Z" fill="#24126A"/>
<path d="M637.5 302.232L631.408 298.622C630.983 298.333 630.983 297.9 631.55 297.467L633.533 296.312C634.1 296.023 634.95 295.878 635.375 296.167L641.467 299.777C641.892 300.066 641.892 300.499 641.325 300.932L639.342 302.088C638.917 302.376 638.067 302.521 637.5 302.232Z" fill="#24126A"/>
<path d="M646.708 307.575L640.617 303.965C640.192 303.676 640.192 303.243 640.758 302.81L642.742 301.654C643.308 301.366 644.158 301.221 644.583 301.51L650.675 305.12C651.1 305.409 651.1 305.842 650.533 306.275L648.55 307.43C648.125 307.864 647.275 307.864 646.708 307.575Z" fill="#24126A"/>
<path d="M655.917 313.062L649.825 309.452C649.4 309.163 649.4 308.73 649.967 308.297L651.95 307.142C652.517 306.853 653.367 306.708 653.792 306.997L659.883 310.607C660.308 310.896 660.308 311.329 659.742 311.762L657.758 312.918C657.333 313.351 656.483 313.351 655.917 313.062Z" fill="#24126A"/>
<path d="M665.267 318.405L659.175 314.795C658.75 314.506 658.75 314.073 659.317 313.64L661.3 312.484C661.867 312.196 662.717 312.051 663.142 312.34L669.233 315.95C669.658 316.239 669.658 316.672 669.092 317.105L667.108 318.261C666.542 318.694 665.692 318.694 665.267 318.405Z" fill="#24126A"/>
<path d="M573.892 275.951L567.8 272.341C567.375 272.052 567.375 271.619 567.942 271.186L573.892 267.72C574.458 267.431 575.308 267.287 575.733 267.576L581.825 271.186C582.25 271.475 582.25 271.908 581.683 272.341L575.733 275.807C575.167 276.24 574.458 276.24 573.892 275.951Z" fill="#24126A"/>
<path d="M583.242 281.438L577.15 277.828C576.725 277.539 576.725 277.106 577.292 276.673L583.242 273.207C583.808 272.919 584.658 272.774 585.083 273.063L591.175 276.673C591.6 276.962 591.6 277.395 591.033 277.828L585.083 281.294C584.517 281.727 583.667 281.727 583.242 281.438Z" fill="#24126A"/>
<path d="M592.45 286.925L586.358 283.315C585.933 283.027 585.933 282.593 586.5 282.16L592.45 278.695C593.017 278.406 593.867 278.261 594.292 278.55L600.383 282.16C600.808 282.449 600.808 282.882 600.242 283.315L594.292 286.781C593.867 287.07 593.017 287.214 592.45 286.925Z" fill="#24126A"/>
<path d="M601.8 292.413L595.708 288.803C595.283 288.514 595.283 288.081 595.85 287.647L601.8 284.182C602.367 283.893 603.217 283.749 603.642 284.037L609.733 287.647C610.158 287.936 610.158 288.369 609.592 288.803L603.642 292.268C603.075 292.557 602.225 292.702 601.8 292.413Z" fill="#24126A"/>
<path d="M611.15 297.9L605.058 294.29C604.633 294.001 604.633 293.568 605.2 293.135L611.15 289.669C611.717 289.38 612.567 289.236 612.992 289.525L619.083 293.135C619.508 293.424 619.508 293.857 618.942 294.29L612.992 297.756C612.425 298.044 611.575 298.044 611.15 297.9Z" fill="#24126A"/>
<path d="M620.358 303.243L614.267 299.633C613.842 299.344 613.842 298.911 614.408 298.478L620.358 295.012C620.925 294.723 621.775 294.579 622.2 294.868L628.292 298.478C628.717 298.766 628.717 299.2 628.15 299.633L622.2 303.098C621.775 303.532 620.925 303.532 620.358 303.243Z" fill="#24126A"/>
<path d="M629.708 308.73L623.617 305.12C623.192 304.831 623.192 304.398 623.758 303.965L629.708 300.499C630.275 300.21 631.125 300.066 631.55 300.355L637.642 303.965C638.067 304.254 638.067 304.687 637.5 305.12L631.55 308.586C630.983 309.019 630.133 309.019 629.708 308.73Z" fill="#24126A"/>
<path d="M639.058 314.217L632.967 310.607C632.542 310.318 632.542 309.885 633.108 309.452L639.058 305.986C639.625 305.698 640.475 305.553 640.9 305.842L646.992 309.452C647.417 309.741 647.417 310.174 646.85 310.607L640.9 314.073C640.333 314.506 639.483 314.506 639.058 314.217Z" fill="#24126A"/>
<path d="M648.267 319.705L642.175 316.095C641.75 315.806 641.75 315.373 642.317 314.939L648.267 311.474C648.833 311.185 649.683 311.04 650.108 311.329L656.2 314.939C656.625 315.228 656.625 315.661 656.058 316.095L650.108 319.56C649.683 319.993 648.833 319.993 648.267 319.705Z" fill="#24126A"/>
<path d="M520.767 276.673L503.058 266.276C502.633 265.987 502.633 265.554 503.2 265.121L509.15 261.655C509.717 261.366 510.567 261.222 510.992 261.511L528.7 271.908C529.125 272.197 529.125 272.63 528.558 273.063L522.608 276.529C522.042 276.817 521.192 276.962 520.767 276.673Z" fill="#24126A"/>
<path d="M634.95 343.82L617.242 333.423C616.817 333.134 616.817 332.701 617.383 332.267L623.333 328.802C623.9 328.513 624.75 328.369 625.175 328.657L642.883 339.054C643.308 339.343 643.308 339.776 642.742 340.21L636.792 343.675C636.367 344.108 635.517 344.108 634.95 343.82Z" fill="#24126A"/>
<path d="M597.833 334L591.742 330.39C591.317 330.101 591.317 329.668 591.883 329.235L598.967 325.047C599.533 324.759 600.383 324.614 600.808 324.903L606.9 328.513C607.325 328.802 607.325 329.235 606.758 329.668L599.675 333.856C599.108 334.289 598.258 334.289 597.833 334Z" fill="#24126A"/>
<path d="M530.258 294.29L520.625 288.658C520.2 288.369 520.2 287.936 520.767 287.503L527.85 283.315C528.417 283.027 529.267 282.882 529.692 283.171L539.325 288.803C539.75 289.091 539.75 289.525 539.183 289.958L532.1 294.146C531.533 294.579 530.683 294.579 530.258 294.29Z" fill="#24126A"/>
<path d="M588.908 328.802L579.275 323.17C578.85 322.881 578.85 322.448 579.417 322.015L586.5 317.827C587.067 317.539 587.917 317.394 588.342 317.683L597.975 323.315C598.4 323.603 598.4 324.037 597.833 324.47L590.75 328.657C590.183 329.091 589.333 329.091 588.908 328.802Z" fill="#24126A"/>
<path d="M543.717 302.232L534.083 296.6C533.658 296.312 533.658 295.878 534.225 295.445L541.308 291.257C541.875 290.969 542.725 290.824 543.15 291.113L552.783 296.745C553.208 297.034 553.208 297.467 552.642 297.9L545.558 302.088C544.992 302.521 544.142 302.521 543.717 302.232Z" fill="#24126A"/>
<path d="M543.292 291.257L585.225 315.95C585.792 316.239 585.792 316.817 585.225 317.105L578 321.437C577.433 321.726 576.583 321.726 576.158 321.437L534.083 296.6L543.292 291.257Z" fill="#24126A"/>
<path d="M623.758 343.964L630.417 347.863C630.842 348.152 630.7 348.44 630.275 348.729L627.3 350.462C626.875 350.751 626.167 350.751 625.742 350.462L619.083 346.563C618.658 346.274 618.8 345.986 619.225 345.697L622.2 343.964C622.767 343.82 623.475 343.82 623.758 343.964Z" fill="#24126A"/>
<path d="M614.408 338.477L621.067 342.376C621.492 342.664 621.35 342.953 620.925 343.242L617.95 344.975C617.525 345.264 616.817 345.264 616.392 344.975L609.733 341.076C609.308 340.787 609.45 340.498 609.875 340.21L612.85 338.477C613.275 338.332 613.983 338.188 614.408 338.477Z" fill="#24126A"/>
<path d="M605.058 332.989L611.717 336.888C612.142 337.177 612 337.466 611.575 337.755L608.6 339.488C608.175 339.776 607.467 339.776 607.042 339.488L600.383 335.589C599.958 335.3 600.1 335.011 600.525 334.722L603.5 332.989C604.067 332.845 604.775 332.701 605.058 332.989Z" fill="#24126A"/>
<path d="M619.508 335.444L626.167 339.343C626.592 339.632 626.45 339.921 626.025 340.21L623.05 341.942C622.625 342.231 621.917 342.231 621.492 341.942L614.833 338.044C614.408 337.755 614.55 337.466 614.975 337.177L617.95 335.444C618.517 335.3 619.225 335.156 619.508 335.444Z" fill="#24126A"/>
</g>
<path d="M714.425 187.866C714 187.866 713.433 187.722 713.008 187.433C711.592 186.567 710.742 184.689 711.025 183.245C711.167 182.523 711.592 181.946 712.158 181.657C712.867 181.368 713.575 181.512 714.425 181.946C715.842 182.812 716.692 184.689 716.408 186.133C716.267 186.855 715.842 187.433 715.275 187.722C714.992 187.866 714.708 187.866 714.425 187.866ZM713.15 182.234C713.008 182.234 712.725 182.234 712.583 182.379C712.158 182.523 711.875 182.956 711.733 183.39C711.45 184.689 712.158 186.133 713.433 186.855C714 187.144 714.567 187.289 715.133 187C715.558 186.855 715.842 186.422 715.983 185.989C716.267 184.689 715.558 183.245 714.283 182.523C713.858 182.379 713.433 182.234 713.15 182.234Z" fill="#42E8E0"/>
<path d="M722.075 192.487C721.65 192.487 721.083 192.343 720.658 192.054C719.242 191.187 718.392 189.31 718.675 187.866C718.817 187.144 719.242 186.567 719.808 186.278C720.517 185.989 721.225 186.133 722.075 186.567C723.492 187.433 724.342 189.31 724.058 190.754C723.917 191.476 723.492 192.054 722.925 192.343C722.642 192.343 722.358 192.487 722.075 192.487ZM720.8 186.711C720.658 186.711 720.375 186.711 720.233 186.855C719.808 187 719.525 187.433 719.383 187.866C719.1 189.166 719.808 190.61 721.083 191.332C721.65 191.621 722.217 191.765 722.783 191.476C723.208 191.332 723.492 190.899 723.633 190.465C723.917 189.166 723.208 187.722 721.933 187C721.508 186.855 721.083 186.711 720.8 186.711Z" fill="#42E8E0"/>
<path d="M731.567 195.231C731.283 196.53 730.008 197.108 728.592 196.241C727.175 195.375 726.467 193.787 726.75 192.343C727.033 191.043 728.308 190.465 729.725 191.332C731 192.054 731.85 193.787 731.567 195.231Z" fill="#42E8E0"/>
<path d="M584.375 108.879L580.267 106.424L580.692 104.547L584.8 107.001L584.375 108.879Z" fill="#42E8E0"/>
<path d="M590.325 112.344L586.358 110.034L586.642 108.012L590.75 110.467L590.325 112.344Z" fill="#42E8E0"/>
<path d="M578.567 105.413L569.5 100.07L569.783 98.1929L578.85 103.536L578.567 105.413Z" fill="#42E8E0"/>
<path d="M579.7 141.947L572.758 137.903L573.042 136.315L579.983 140.358L579.7 141.947Z" fill="#42E8E0"/>
<path d="M585.508 145.412L582.108 143.391L582.392 141.658L585.792 143.679L585.508 145.412Z" fill="#42E8E0"/>
<path d="M581.117 146.856L578.142 145.123L578.425 143.535L581.258 145.268L581.117 146.856Z" fill="#42E8E0"/>
<path d="M585.933 149.744L582.533 147.723L582.817 146.134L586.217 148.156L585.933 149.744Z" fill="#42E8E0"/>
<path d="M591.033 156.964L577.575 149.022L577.717 147.289L591.317 155.231L591.033 156.964Z" fill="#42E8E0"/>
<path d="M579.275 188.588L565.817 180.79L566.1 179.058L579.558 187L579.275 188.588Z" fill="#42E8E0"/>
<path d="M584.517 191.765L581.117 189.743L581.258 188.011L584.8 190.032L584.517 191.765Z" fill="#42E8E0"/>
<path d="M579.842 154.509L576.867 152.777L577.15 151.188L580.125 152.921L579.842 154.509Z" fill="#42E8E0"/>
<path d="M584.658 157.397L581.258 155.376L581.542 153.787L584.942 155.809L584.658 157.397Z" fill="#42E8E0"/>
<path d="M583.667 160.863L576.3 156.531L576.583 154.943L583.95 159.275L583.667 160.863Z" fill="#42E8E0"/>
<path d="M588.625 163.895L585.225 161.874L585.508 160.141L588.908 162.163L588.625 163.895Z" fill="#42E8E0"/>
<path d="M593.583 166.784L590.183 164.762L590.467 163.173L593.867 165.195L593.583 166.784Z" fill="#42E8E0"/>
<path d="M601.658 171.549L595.142 167.65L595.425 166.062L601.942 169.96L601.658 171.549Z" fill="#42E8E0"/>
<path d="M596.558 176.747L593.158 174.726L593.442 173.137L596.842 175.159L596.558 176.747Z" fill="#42E8E0"/>
<path d="M604.633 181.512L598.117 177.758L598.4 176.17L604.917 179.924L604.633 181.512Z" fill="#42E8E0"/>
<path d="M578.425 166.206L575.025 164.184L575.308 162.451L578.708 164.473L578.425 166.206Z" fill="#42E8E0"/>
<path d="M583.383 169.094L579.983 167.072L580.267 165.484L583.667 167.506L583.383 169.094Z" fill="#42E8E0"/>
<path d="M591.458 173.859L584.942 169.96L585.225 168.372L591.742 172.271L591.458 173.859Z" fill="#42E8E0"/>
<path d="M602.083 175.881L598.542 173.859L598.825 172.271L602.367 174.292L602.083 175.881Z" fill="#42E8E0"/>
<path d="M607.042 178.769L603.642 176.747L603.925 175.159L607.325 177.18L607.042 178.769Z" fill="#42E8E0"/>
<path d="M615.117 183.534L608.6 179.78L608.883 178.191L615.4 181.946L615.117 183.534Z" fill="#42E8E0"/>
<path d="M589.9 194.942L586.5 192.92L586.642 191.187L590.183 193.209L589.9 194.942Z" fill="#42E8E0"/>
<path d="M597.975 199.563L591.458 195.808L591.742 194.22L598.117 197.974L597.975 199.563Z" fill="#42E8E0"/>
<path d="M577.15 173.715L573.75 171.693L574.033 170.105L577.433 172.126L577.15 173.715Z" fill="#42E8E0"/>
<path d="M585.225 178.48L578.708 174.726L578.992 172.993L585.508 176.892L585.225 178.48Z" fill="#42E8E0"/>
<path d="M593.583 201.295L590.183 199.274L590.467 197.541L593.867 199.563L593.583 201.295Z" fill="#42E8E0"/>
<path d="M601.658 205.916L595.142 202.162L595.425 200.573L601.942 204.328L601.658 205.916Z" fill="#42E8E0"/>
<path d="M601.233 162.885L597.833 160.863L598.117 159.275L601.517 161.296L601.233 162.885Z" fill="#42E8E0"/>
<path d="M596.133 159.852L592.592 157.831L592.875 156.242L596.275 158.264L596.133 159.852Z" fill="#42E8E0"/>
<path d="M609.308 167.65L602.792 163.895L603.075 162.307L609.592 166.062L609.308 167.65Z" fill="#42E8E0"/>
<path d="M578.708 162.163L575.592 160.285L575.875 158.697L578.992 160.574L578.708 162.163Z" fill="#42E8E0"/>
<path d="M587.917 167.506L580.408 163.173L580.692 161.585L588.2 165.917L587.917 167.506Z" fill="#42E8E0"/>
<path d="M597.125 172.993L589.617 168.516L589.9 166.928L597.408 171.404L597.125 172.993Z" fill="#42E8E0"/>
<path d="M614.125 170.538L611.008 168.661L611.292 167.072L614.408 168.805L614.125 170.538Z" fill="#42E8E0"/>
<path d="M623.333 175.881L615.683 171.404L615.967 169.816L623.475 174.292L623.333 175.881Z" fill="#42E8E0"/>
<path d="M632.4 181.368L624.892 176.892L625.175 175.303L632.683 179.635L632.4 181.368Z" fill="#42E8E0"/>
<path d="M581.967 172.415L574.458 167.939L574.742 166.35L582.25 170.827L581.967 172.415Z" fill="#42E8E0"/>
<path d="M585.933 174.726L583.667 173.426L583.95 171.693L586.217 173.137L585.933 174.726Z" fill="#42E8E0"/>
<path d="M589.9 177.036L587.633 175.736L587.917 174.148L590.183 175.448L589.9 177.036Z" fill="#42E8E0"/>
<path d="M597.267 181.368L591.6 178.047L591.883 176.458L597.55 179.78L597.267 181.368Z" fill="#42E8E0"/>
<path d="M605.483 173.715L603.217 172.415L603.5 170.827L605.767 172.126L605.483 173.715Z" fill="#42E8E0"/>
<path d="M612.85 178.047L607.183 174.726L607.467 173.137L613.133 176.458L612.85 178.047Z" fill="#42E8E0"/>
<path d="M614.408 179.058L608.742 175.592L609.025 174.004L614.692 177.325L614.408 179.058Z" fill="#42E8E0"/>
<path d="M584.092 199.851L576.725 195.519L577.008 193.787L584.375 198.263L584.092 199.851Z" fill="#42E8E0"/>
<path d="M589.05 202.739L585.65 200.718L585.933 199.129L589.333 201.151L589.05 202.739Z" fill="#42E8E0"/>
<path d="M594.15 205.627L590.608 203.606L590.892 202.017L594.433 204.039L594.15 205.627Z" fill="#42E8E0"/>
<path d="M602.083 210.393L595.708 206.638L595.85 205.05L602.367 208.804L602.083 210.393Z" fill="#42E8E0"/>
<path d="M607.325 213.425L603.925 211.404L604.067 209.815L607.608 211.837L607.325 213.425Z" fill="#42E8E0"/>
<path d="M615.4 218.19L608.883 214.436L609.167 212.703L615.683 216.602L615.4 218.19Z" fill="#42E8E0"/>
<path d="M590.608 211.981L587.208 209.96L587.492 208.371L590.892 210.393L590.608 211.981Z" fill="#42E8E0"/>
<path d="M598.683 216.746L592.167 212.848L592.45 211.259L598.967 215.158L598.683 216.746Z" fill="#42E8E0"/>
<path d="M572.758 201.44L569.217 199.418L569.5 197.83L573.042 199.851L572.758 201.44Z" fill="#42E8E0"/>
<path d="M577.717 204.328L574.317 202.306L574.6 200.718L578 202.739L577.717 204.328Z" fill="#42E8E0"/>
<path d="M585.792 209.093L579.275 205.339L579.558 203.606L586.075 207.505L585.792 209.093Z" fill="#42E8E0"/>
<path d="M579.133 201.007L576.158 199.274L576.3 197.685L579.417 199.418L579.133 201.007Z" fill="#42E8E0"/>
<path d="M588.342 206.494L580.833 202.017L581.117 200.429L588.625 204.905L588.342 206.494Z" fill="#42E8E0"/>
<path d="M597.55 211.837L590.042 207.505L590.325 205.772L597.833 210.248L597.55 211.837Z" fill="#42E8E0"/>
<path d="M570.208 204.039L562.7 199.707L562.983 197.974L570.492 202.451L570.208 204.039Z" fill="#42E8E0"/>
<path d="M574.175 206.494L571.908 205.05L572.05 203.461L574.458 204.761L574.175 206.494Z" fill="#42E8E0"/>
<path d="M578.142 208.804L575.875 207.36L576.017 205.772L578.425 207.216L578.142 208.804Z" fill="#42E8E0"/>
<path d="M585.508 213.136L579.842 209.815L580.125 208.082L585.792 211.548L585.508 213.136Z" fill="#42E8E0"/>
<path d="M587.067 214.003L581.4 210.682L581.542 209.093L587.35 212.414L587.067 214.003Z" fill="#42E8E0"/>
<path d="M573.608 189.455L571.2 188.155L571.483 186.422L573.892 187.866L573.608 189.455Z" fill="#42E8E0"/>
<path d="M580.975 193.787L575.308 190.465L575.45 188.877L581.258 192.198L580.975 193.787Z" fill="#42E8E0"/>
<path d="M588.483 198.263L582.817 194.797L582.958 193.209L588.767 196.53L588.483 198.263Z" fill="#42E8E0"/>
<path d="M617.383 223.533L613.983 221.512L614.267 219.923L617.667 221.945L617.383 223.533Z" fill="#42E8E0"/>
<path d="M625.458 228.299L618.942 224.4L619.225 222.811L625.742 226.71L625.458 228.299Z" fill="#42E8E0"/>
<path d="M604.775 216.024L598.967 212.703L599.25 211.115L604.917 214.436L604.775 216.024Z" fill="#42E8E0"/>
<path d="M612.283 220.501L606.475 217.18L606.758 215.591L612.425 218.912L612.283 220.501Z" fill="#42E8E0"/>
<path d="M569.5 173.426L567.233 171.982L567.517 170.394L569.783 171.838L569.5 173.426Z" fill="#42E8E0"/>
<path d="M576.867 177.758L571.2 174.437L571.483 172.704L577.15 176.17L576.867 177.758Z" fill="#42E8E0"/>
<path d="M584.375 182.09L578.708 178.769L578.992 177.18L584.658 180.502L584.375 182.09Z" fill="#42E8E0"/>
<path d="M697.85 241.15C697.283 241.15 696.858 241.006 696.292 240.717L650.25 213.714C648.408 212.559 647.133 209.815 647.558 207.505L650.533 189.599C650.675 188.444 651.383 187.433 652.233 187C653.083 186.566 653.933 186.711 654.925 187.289L700.967 214.292C702.808 215.447 704.083 218.19 703.658 220.501L700.683 238.407C700.542 239.562 699.833 240.573 698.983 241.006C698.7 241.006 698.275 241.15 697.85 241.15ZM653.367 187.289C653.083 187.289 652.8 187.289 652.517 187.433C651.808 187.722 651.383 188.588 651.242 189.455L648.267 207.36C647.983 209.382 648.975 211.981 650.675 212.848L696.717 239.851C697.425 240.284 698.133 240.284 698.842 239.995C699.55 239.706 699.975 238.84 700.117 237.973L703.092 220.068C703.375 218.046 702.383 215.447 700.683 214.58L654.642 187.722C654.217 187.433 653.792 187.289 653.367 187.289Z" fill="#42E8E0"/>
<path d="M692.892 271.908C692.325 271.908 691.9 271.763 691.333 271.474L645.292 244.471C643.45 243.316 642.175 240.573 642.6 238.262L645.575 220.356C645.717 219.201 646.425 218.19 647.275 217.757C648.125 217.324 648.975 217.468 649.967 218.046L696.008 245.049C697.85 246.204 699.125 248.948 698.7 251.258L695.725 269.164C695.583 270.319 694.875 271.33 694.025 271.763C693.6 271.763 693.175 271.908 692.892 271.908ZM691.617 270.752C692.325 271.186 693.033 271.186 693.742 270.897C694.45 270.608 694.875 269.742 695.017 268.875L697.992 250.97C698.275 248.948 697.283 246.349 695.583 245.482L649.542 218.479C648.833 218.046 648.125 218.046 647.417 218.335C646.708 218.624 646.283 219.49 646.142 220.356L643.167 238.262C642.883 240.284 643.875 242.883 645.575 243.749L691.617 270.752Z" fill="#42E8E0"/>
<path opacity="0.5" d="M654.5 211.692C655.35 212.126 656.058 211.981 656.342 211.259L661.725 196.386C662.292 194.653 664.842 196.241 665.408 198.696L668.667 213.714C668.95 214.869 669.658 215.88 670.508 216.458L671.358 216.891C672.067 217.324 672.775 217.18 673.058 216.602L674.192 214.292C674.9 212.848 677.167 214.147 677.733 216.458C678.017 217.468 678.725 218.479 679.575 218.912L680.283 219.346C681.133 219.779 681.842 219.634 682.125 218.912L683.117 215.736C683.683 214.003 686.233 215.447 686.8 217.902L690.058 231.764C690.342 232.919 691.05 233.93 691.9 234.363L654.5 211.692Z" fill="url(#paint7_linear_13_25)"/>
<path d="M685.95 264.832C685.1 264.254 684.25 263.099 683.967 261.944L680.708 248.081C680.425 246.637 679.15 245.482 678.3 245.482C678.017 245.482 677.733 245.627 677.592 246.06L676.6 249.237C676.458 249.67 676.175 249.959 675.75 250.103C675.325 250.248 674.758 250.248 674.192 249.814L673.483 249.381C672.633 248.803 671.783 247.793 671.5 246.637C671.075 245.193 669.942 244.183 669.233 244.038C668.95 244.038 668.667 244.183 668.525 244.471L667.392 246.782C667.25 247.215 666.967 247.359 666.542 247.504C666.117 247.648 665.692 247.504 665.125 247.215L664.275 246.782C663.283 246.204 662.575 245.049 662.292 243.894L659.033 228.876C658.75 227.432 657.475 226.277 656.767 226.132C656.483 226.132 656.2 226.277 656.058 226.566L650.675 241.439C650.533 241.872 650.25 242.161 649.825 242.305C649.4 242.45 648.833 242.45 648.408 242.017L648.692 241.439C648.975 241.583 649.4 241.728 649.683 241.583C649.825 241.583 649.967 241.295 650.108 241.15L655.492 226.277C655.775 225.699 656.2 225.266 656.767 225.41C657.9 225.41 659.317 226.854 659.742 228.587L663 243.605C663.283 244.616 663.85 245.627 664.7 246.06L665.55 246.493C665.833 246.637 666.258 246.782 666.4 246.637C666.542 246.637 666.683 246.493 666.825 246.204L667.958 243.894C668.242 243.316 668.667 243.027 669.233 243.172C670.367 243.316 671.642 244.616 672.067 246.204C672.35 247.215 672.917 248.081 673.767 248.515L674.475 248.948C674.9 249.092 675.183 249.237 675.467 249.092C675.608 248.948 675.75 248.803 675.892 248.659L676.883 245.482C677.025 244.905 677.592 244.471 678.158 244.471C679.292 244.471 680.708 245.771 681.133 247.648L684.392 261.511C684.675 262.522 685.383 263.532 686.092 263.966L685.95 264.832Z" fill="#42E8E0"/>
<path d="M667.392 172.126C666.683 172.126 665.975 171.982 665.408 171.549L629.425 150.466C627.158 149.167 626.025 145.99 626.592 143.391C626.875 142.091 627.725 141.08 628.717 140.647C629.708 140.214 630.983 140.358 631.975 140.936L667.958 162.018C670.225 163.318 671.358 166.495 670.792 169.094C670.508 170.394 669.658 171.404 668.667 171.838C668.383 171.982 667.958 172.126 667.392 172.126ZM630.133 141.08C629.708 141.08 629.425 141.08 629.142 141.225C628.292 141.658 627.583 142.38 627.3 143.535C626.733 145.845 627.725 148.589 629.708 149.744L665.692 170.827C666.542 171.404 667.533 171.404 668.383 171.116C669.233 170.682 669.942 169.96 670.225 168.805C670.792 166.495 669.8 163.751 667.817 162.596L631.833 141.513C631.267 141.225 630.7 141.08 630.133 141.08Z" fill="#42E8E0"/>
</g>
<defs>
<radialGradient id="paint0_radial_13_25" cx="0" cy="0" r="1" gradientUnits="userSpaceOnUse" gradientTransform="translate(868.417 78.5626) rotate(180) scale(622.401 634.416)">
<stop stop-color="#FF2C9C"/>
<stop offset="0.0300632" stop-color="#F62F9F"/>
<stop offset="0.2023" stop-color="#C63EB0"/>
<stop offset="0.3737" stop-color="#9E4BBE"/>
<stop offset="0.5413" stop-color="#7F54C9"/>
<stop offset="0.7039" stop-color="#695BD1"/>
<stop offset="0.8594" stop-color="#5C60D5"/>
<stop offset="1" stop-color="#5761D7"/>
</radialGradient>
<linearGradient id="paint1_linear_13_25" x1="752.269" y1="196.388" x2="530.809" y2="196.388" gradientUnits="userSpaceOnUse">
<stop stop-color="#C0BFF6"/>
<stop offset="0.2938" stop-color="#C5C4F7"/>
<stop offset="0.6399" stop-color="#D3D2F9"/>
<stop offset="1" stop-color="#E9E9FD"/>
</linearGradient>
<linearGradient id="paint2_linear_13_25" x1="752.267" y1="254.279" x2="714.24" y2="254.279" gradientUnits="userSpaceOnUse">
<stop stop-color="#5761D7"/>
<stop offset="0.1779" stop-color="#5C66D9"/>
<stop offset="0.3876" stop-color="#6A73DF"/>
<stop offset="0.6134" stop-color="#8289E8"/>
<stop offset="0.849" stop-color="#A3A7F5"/>
<stop offset="1" stop-color="#BCBEFF"/>
</linearGradient>
<linearGradient id="paint3_linear_13_25" x1="722.598" y1="317.442" x2="409.825" y2="317.442" gradientUnits="userSpaceOnUse">
<stop stop-color="#5761D7"/>
<stop offset="0.1779" stop-color="#5C66D9"/>
<stop offset="0.3876" stop-color="#6A73DF"/>
<stop offset="0.6134" stop-color="#8289E8"/>
<stop offset="0.849" stop-color="#A3A7F5"/>
<stop offset="1" stop-color="#BCBEFF"/>
</linearGradient>
<linearGradient id="paint4_linear_13_25" x1="861.551" y1="308.724" x2="400.669" y2="308.724" gradientUnits="userSpaceOnUse">
<stop stop-color="#C0BFF6"/>
<stop offset="0.2938" stop-color="#C5C4F7"/>
<stop offset="0.6399" stop-color="#D3D2F9"/>
<stop offset="1" stop-color="#E9E9FD"/>
</linearGradient>
<linearGradient id="paint5_linear_13_25" x1="842.869" y1="247.278" x2="530.096" y2="247.278" gradientUnits="userSpaceOnUse">
<stop stop-color="#5761D7"/>
<stop offset="0.1779" stop-color="#5C66D9"/>
<stop offset="0.3876" stop-color="#6A73DF"/>
<stop offset="0.6134" stop-color="#8289E8"/>
<stop offset="0.849" stop-color="#A3A7F5"/>
<stop offset="1" stop-color="#BCBEFF"/>
</linearGradient>
<linearGradient id="paint6_linear_13_25" x1="737.776" y1="238.561" x2="424.836" y2="238.561" gradientUnits="userSpaceOnUse">
<stop stop-color="#C0BFF6"/>
<stop offset="0.2938" stop-color="#C5C4F7"/>
<stop offset="0.6399" stop-color="#D3D2F9"/>
<stop offset="1" stop-color="#E9E9FD"/>
</linearGradient>
<linearGradient id="paint7_linear_13_25" x1="658.01" y1="206.46" x2="724.458" y2="234.349" gradientUnits="userSpaceOnUse">
<stop stop-color="#42E8E0"/>
<stop offset="0.1055" stop-color="#37B6BF"/>
<stop offset="0.2197" stop-color="#2C87A1"/>
<stop offset="0.338" stop-color="#235F87"/>
<stop offset="0.4587" stop-color="#1C3F72"/>
<stop offset="0.5824" stop-color="#162561"/>
<stop offset="0.7105" stop-color="#121355"/>
<stop offset="0.8458" stop-color="#10084E"/>
<stop offset="1" stop-color="#0F054C"/>
</linearGradient>
<clipPath id="clip0_13_25">
<rect width="850" height="521" fill="white"/>
</clipPath>
</defs>
</svg>
