<svg width="40" height="40" viewBox="0 0 40 40" fill="none" xmlns="http://www.w3.org/2000/svg">
<path fill-rule="evenodd" clip-rule="evenodd" d="M5.73223 6.98223C6.20107 6.51339 6.83696 6.25 7.5 6.25H32.5C33.163 6.25 33.7989 6.51339 34.2678 6.98223C34.7366 7.45108 35 8.08696 35 8.75V17.9219C35 31.9044 23.1287 36.532 20.8007 37.3059C20.283 37.4913 19.717 37.4913 19.1993 37.3059C16.8713 36.532 5 31.9044 5 17.9219V8.75C5 8.08696 5.26339 7.45107 5.73223 6.98223ZM32.5 8.75L7.5 8.75L7.5 17.9219C7.5 30.1502 17.8434 34.2234 20 34.9376C22.1566 34.2234 32.5 30.1502 32.5 17.9219V8.75Z" fill="#021CA8"/>
<path fill-rule="evenodd" clip-rule="evenodd" d="M27.7794 15.3872C28.256 15.8867 28.2373 16.6779 27.7378 17.1544L18.566 25.9044C18.0827 26.3655 17.3224 26.3652 16.8395 25.9037L12.2614 21.5287C11.7623 21.0517 11.7443 20.2605 12.2213 19.7614C12.6983 19.2623 13.4895 19.2443 13.9886 19.7213L17.7039 23.2717L26.0122 15.3456C26.5117 14.869 27.3029 14.8877 27.7794 15.3872Z" fill="#021CA8"/>
</svg>
